<?xml version="1.0" encoding="utf-8"?>
<!-- Generator: Adobe Illustrator 16.0.0, SVG Export Plug-In . SVG Version: 6.00 Build 0)  -->
<!DOCTYPE svg PUBLIC "-//W3C//DTD SVG 1.1//EN" "http://www.w3.org/Graphics/SVG/1.1/DTD/svg11.dtd">
<svg version="1.1" id="Layer_1" xmlns="http://www.w3.org/2000/svg" xmlns:xlink="http://www.w3.org/1999/xlink" x="0px" y="0px"
	 width="517.34px" height="125.17px" viewBox="0 0 517.34 125.17" enable-background="new 0 0 517.34 125.17" xml:space="preserve">
<g>
	<path fill="#FFFFFF" d="M178.898,78.601v21.965h-11.34V41.01h11.34v5.446c3.303-4.195,8.035-6.519,13.304-6.519
		c11.071,0,19.107,8.215,19.107,22.591c0,14.376-8.036,22.679-19.107,22.679C187.112,85.207,182.38,83.063,178.898,78.601z
		 M199.523,62.528c0-7.411-4.375-12.501-10.893-12.501c-3.661,0-7.857,2.144-9.732,4.911v15.268
		c1.875,2.679,6.071,4.912,9.732,4.912C195.148,75.118,199.523,70.028,199.523,62.528z"/>
	<path fill="#FFFFFF" d="M218.447,29.581c0-3.751,3.126-6.697,6.786-6.697c3.75,0,6.786,2.946,6.786,6.697
		c0,3.75-3.036,6.786-6.786,6.786C221.573,36.367,218.447,33.331,218.447,29.581z M219.608,84.136V41.01h11.34v43.126H219.608z"/>
	<path fill="#FFFFFF" d="M253.535,78.601v21.965h-11.34V41.01h11.34v5.446c3.303-4.195,8.035-6.519,13.304-6.519
		c11.071,0,19.106,8.215,19.106,22.591c0,14.376-8.035,22.679-19.106,22.679C261.749,85.207,257.017,83.063,253.535,78.601z
		 M274.16,62.528c0-7.411-4.375-12.501-10.893-12.501c-3.662,0-7.857,2.144-9.732,4.911v15.268c1.875,2.679,6.07,4.912,9.732,4.912
		C269.785,75.118,274.16,70.028,274.16,62.528z"/>
	<path fill="#FFFFFF" d="M291.479,62.528c0-12.501,9.195-22.591,22.32-22.591c12.858,0,21.608,9.645,21.608,23.751v2.5h-32.056
		c0.715,5.446,5.09,10,12.41,10c3.662,0,8.751-1.607,11.52-4.285l5,7.322c-4.285,3.928-11.071,5.98-17.769,5.98
		C301.389,85.207,291.479,76.367,291.479,62.528z M313.799,48.957c-7.054,0-10.089,5.268-10.625,9.553h21.251
		C324.157,54.402,321.3,48.957,313.799,48.957z"/>
	<path fill="#FFFFFF" d="M343.616,84.136V41.01h11.34v5.895c3.035-3.84,8.393-6.966,13.75-6.966v11.073
		c-0.804-0.18-1.875-0.269-3.125-0.269c-3.75,0-8.75,2.143-10.625,4.911v28.482L343.616,84.136L343.616,84.136z"/>
	<path fill="#FFFFFF" d="M387.096,78.601v21.965h-11.34V41.01h11.34v5.446c3.304-4.195,8.036-6.519,13.305-6.519
		c11.07,0,19.106,8.215,19.106,22.591c0,14.376-8.036,22.679-19.106,22.679C395.31,85.207,390.577,83.063,387.096,78.601z
		 M407.721,62.528c0-7.411-4.375-12.501-10.893-12.501c-3.662,0-7.857,2.144-9.732,4.911v15.268c1.875,2.679,6.07,4.912,9.732,4.912
		C403.346,75.118,407.721,70.028,407.721,62.528z"/>
	<path fill="#FFFFFF" d="M453.698,84.136v-4.465c-2.946,3.482-8.035,5.536-13.66,5.536c-6.876,0-15-4.644-15-14.286
		c0-10.09,8.124-13.929,15-13.929c5.715,0,10.804,1.875,13.66,5.268v-5.804c0-4.375-3.75-7.231-9.464-7.231
		c-4.645,0-8.93,1.696-12.59,5.09l-4.285-7.591c5.268-4.643,12.054-6.786,18.84-6.786c9.82,0,18.839,3.93,18.839,16.341v27.856
		H453.698z M453.698,73.778v-5.356c-1.874-2.501-5.446-3.751-9.107-3.751c-4.463,0-8.124,2.321-8.124,6.52
		c0,4.019,3.661,6.34,8.124,6.34C448.252,77.529,451.824,76.278,453.698,73.778z"/>
	<path fill="#FFFFFF" d="M476.463,90.832c0.982,0.447,2.5,0.715,3.571,0.715c2.946,0,4.911-0.804,5.981-3.126l1.607-3.66
		l-17.5-43.751h12.142l11.251,30.001l11.251-30.001h12.231l-20.27,50.181c-3.214,8.125-8.928,10.268-16.339,10.446
		c-1.34,0-4.195-0.268-5.625-0.625L476.463,90.832z"/>
</g>
<g>
	<path fill="#FFFFFF" d="M81.6,43.224c0.04-0.74,0.063-1.486,0.063-2.236c0-22.646-18.357-41-41.001-41s-41,18.354-41,41
		c0,22.643,18.356,41,41,41c0.771,0,1.536-0.025,2.296-0.068C44.08,61.077,60.765,44.375,81.6,43.224z"/>
	<path fill="#FFFFFF" d="M83.896,43.157c-0.771,0-1.535,0.025-2.296,0.066c-1.122,20.842-17.807,37.545-38.642,38.695
		c-0.04,0.741-0.063,1.486-0.063,2.238c0,22.643,18.356,41,41,41c22.645,0,41-18.357,41-41
		C124.896,61.513,106.54,43.157,83.896,43.157z"/>
	<path fill="#FFFFFF" d="M81.6,43.224c-20.835,1.151-37.52,17.854-38.642,38.695C63.793,80.769,80.478,64.065,81.6,43.224z"/>
</g>
</svg>
